<svg width="70" height="60" viewBox="0 0 70 60" fill="none" xmlns="http://www.w3.org/2000/svg">
<path d="M35 0.464478C15.702 0.464478 0 12.2189 0 26.6675C0 33.6881 3.63459 40.2561 10.2439 45.201C10.2426 50.4923 10.1777 55.0524 7.07868 58.0252C6.83573 58.2601 6.76257 58.6118 6.89371 58.9183C7.02623 59.2236 7.3382 59.4226 7.6833 59.4226C12.084 59.4226 20.1331 58.4246 25.2682 51.8473C28.4169 52.5268 31.6884 52.8719 35 52.8719C54.2993 52.8719 70 41.1174 70 26.6675C70 12.2189 54.2993 0.464478 35 0.464478ZM35 2.10217C53.3579 2.10217 68.2938 13.1227 68.2938 26.6675C68.2938 40.2136 53.3579 51.2342 35 51.2342C31.6263 51.2342 28.2982 50.8626 25.1081 50.1313C24.7671 50.0544 24.4123 50.1831 24.2108 50.4565C20.1704 55.9761 13.8675 57.4319 9.54131 57.7226C11.9515 54.2946 11.9515 49.6947 11.9515 44.8626V44.7989C11.9515 44.5428 11.8273 44.3012 11.6147 44.1473C5.22619 39.4903 1.70755 33.2833 1.70755 26.6675C1.70755 13.1227 16.6421 2.10217 35 2.10217ZM35 4.5587C18.0542 4.5587 4.26819 14.4764 4.26819 26.6675C4.26819 31.0046 6.01716 35.2037 9.32459 38.8122C9.40879 38.9037 9.52613 38.9515 9.64484 38.9515C9.74561 38.9515 9.84638 38.9183 9.92644 38.8507C10.1031 38.7007 10.1211 38.4406 9.9651 38.272C6.79708 34.8135 5.12128 30.8016 5.12128 26.6675C5.12128 14.9276 18.5249 5.37755 35 5.37755C42.8282 5.37755 50.2355 7.53149 55.8551 11.4412C56.0442 11.5726 56.312 11.5341 56.45 11.351C56.588 11.1679 56.5466 10.9117 56.3548 10.779C50.5916 6.76706 43.0077 4.5587 35 4.5587ZM57.5847 11.8354C57.4756 11.8447 57.3707 11.8938 57.2962 11.9814C57.1443 12.1539 57.1678 12.4127 57.3486 12.5587C57.5516 12.7206 57.7503 12.8852 57.9464 13.0524C58.0264 13.1227 58.13 13.1572 58.2307 13.1572C58.3481 13.1572 58.4654 13.1095 58.5496 13.0205C58.707 12.852 58.6904 12.5945 58.5151 12.4432C58.3122 12.2694 58.1065 12.0982 57.8953 11.9296C57.8056 11.858 57.6924 11.8261 57.5847 11.8354ZM34.3899 12.7472C32.3414 12.7472 30.6504 13.1639 29.3183 13.9933C27.9848 14.8255 27.3167 15.6748 27.3167 16.5428C27.3167 17.0272 27.4934 17.4094 27.8468 17.6868C28.2015 17.9668 28.5825 18.1061 28.9911 18.1061C29.3169 18.1061 29.6302 17.9854 29.9298 17.7438C30.2293 17.5023 30.4999 17.2289 30.7456 16.9237C30.9899 16.6184 31.4192 16.3437 32.0308 16.1022C32.6437 15.8606 33.3863 15.7399 34.256 15.7399C35.7578 15.7399 36.9326 16.0716 37.7801 16.7339C38.6277 17.3974 39.0501 18.3278 39.0501 19.5275C39.0501 20.1035 38.9631 20.6476 38.7878 21.1599C38.6139 21.6735 38.3406 22.1473 37.9665 22.5852C37.591 23.0219 37.2625 23.3736 36.9809 23.6363C36.7006 23.8991 36.2727 24.2296 35.6985 24.629C35.1256 25.0298 34.7515 25.3032 34.5748 25.4545C32.9874 26.7033 32.1923 28.7538 32.1923 31.6031C32.1923 32.2548 32.3275 32.7033 32.5953 32.9542C32.8645 33.2037 33.3132 33.3298 33.9412 33.3298C35.196 33.3298 35.8255 32.9422 35.8255 32.1685C35.8255 30.7471 35.9193 29.6868 36.1071 28.9874C36.2962 28.2893 36.7959 27.6045 37.6048 26.9303C37.7111 26.8308 38.0452 26.5521 38.6056 26.0889C39.1647 25.627 39.6299 25.2024 39.9984 24.8162C40.367 24.4286 40.7852 23.9416 41.2491 23.3563C41.7143 22.7697 42.0676 22.1207 42.3147 21.4094C42.5604 20.698 42.6833 19.9575 42.6833 19.1838C42.6833 17.3125 41.9434 15.7717 40.4664 14.5627C38.9866 13.351 36.9602 12.7472 34.3899 12.7472ZM59.5738 13.566C59.4634 13.5647 59.3544 13.6045 59.2702 13.6828C59.1004 13.8407 59.0962 14.0995 59.2619 14.2614C59.5283 14.5242 59.7864 14.7923 60.0349 15.0643C60.1191 15.1559 60.2364 15.2037 60.3552 15.2037C60.4545 15.2037 60.5567 15.1705 60.6381 15.1028C60.8148 14.9529 60.8328 14.6954 60.6768 14.5255C60.4187 14.2428 60.1495 13.9641 59.8734 13.6907C59.792 13.6098 59.6829 13.5673 59.5738 13.566ZM61.4609 15.6178C61.3532 15.6045 61.24 15.6284 61.1461 15.6961C60.957 15.8327 60.9197 16.0902 61.0619 16.2707C63.5591 19.4333 64.8787 23.0285 64.8787 26.6675C64.8787 38.4087 51.4751 47.9588 35 47.9588C34.0103 47.9588 33.015 47.9243 32.0418 47.8553C31.8058 47.8301 31.6042 48.0092 31.5877 48.2335C31.5697 48.4591 31.7464 48.6556 31.9811 48.6728C32.9736 48.7418 33.9895 48.7777 35 48.7777C51.9458 48.7777 65.7318 38.8599 65.7318 26.6675C65.7318 22.848 64.3528 19.0816 61.7425 15.777C61.6721 15.6854 61.5685 15.6324 61.4609 15.6178ZM33.9882 36.4724C33.309 36.4724 32.7375 36.6728 32.2737 37.0736C31.8127 37.4718 31.5808 37.9575 31.5808 38.5295C31.5808 39.0789 31.8127 39.5593 32.2737 39.9694C32.7375 40.3822 33.3076 40.5892 33.9868 40.5892C34.6853 40.5892 35.2885 40.3822 35.7992 39.9694C36.3072 39.5593 36.5612 39.0789 36.5612 38.5295C36.5612 37.9575 36.3072 37.4731 35.7992 37.0736C35.2899 36.6728 34.6866 36.4724 33.9882 36.4724Z" fill="url(#paint0_linear_4371_68635)"/>
<defs>
<linearGradient id="paint0_linear_4371_68635" x1="66.7347" y1="59.4226" x2="-7.90935" y2="32.0477" gradientUnits="userSpaceOnUse">
<stop stop-color="#5E29FF"/>
<stop offset="1" stop-color="#F7820B"/>
</linearGradient>
</defs>
</svg>
