<svg width="68" height="63" viewBox="0 0 68 63" fill="none" xmlns="http://www.w3.org/2000/svg">
<path d="M53.5948 45.1041C58.6811 41.1573 61.315 38.7259 63.5763 34.1356L66.6615 32.2114V2L50.3281 15.47M53.5948 45.1041C48.3776 38.3701 44.2574 34.9909 35.8096 29.3249M53.5948 45.1041C52.6333 48.4393 52.1905 49.8072 47.9689 50.4921M35.8096 29.3249C35.8096 29.3249 34.7008 29.2597 33.9948 29.3249C31.371 29.5674 30.4253 31.7715 27.8244 32.2114C26.2147 32.4836 25.1288 32.9393 23.6503 32.2114C22.3314 31.562 21.2401 30.8606 21.1096 29.3249C20.9645 27.6182 22.4426 26.9999 23.6503 25.8612C25.0496 24.5419 26.1593 24.2678 27.8244 23.3596C29.6292 22.3753 30.5562 21.4898 32.5429 21.0505C34.3468 20.6516 35.4188 21.0505 37.2615 21.0505C39.2459 21.0505 40.3756 21.3257 42.3429 21.0505C44.6111 20.7332 46.2106 20.8706 47.9689 19.3186C49.2682 18.1717 50.6789 17.2236 50.3281 15.47M35.8096 29.3249C43.0851 31.3016 46.6032 30.5368 52.3244 27.4006M50.3281 15.47C50.0578 14.1185 49.205 13.4053 47.9689 12.9685H45.6096C45.6096 12.9685 43.6011 13.192 42.3429 12.9685C40.9276 12.717 38.8948 11.6215 38.8948 11.6215C38.8948 11.6215 33.8986 11.2548 30.7281 11.6215C26.8833 12.0661 24.7143 12.6369 21.1096 14.123C19.956 14.5986 18.2059 15.47 18.2059 15.47L1.32812 2V32.2114L7.13553 36.2524C9.01855 39.2755 10.5421 41.1921 14.3948 45.1041M37.2615 61.0757C42.3751 61.8186 42.2615 59.8795 42.3429 56.6498M42.3429 56.6498C46.8623 56.4074 48.0543 55.0221 47.9689 50.4921M42.3429 56.6498L30.7281 45.1041M47.9689 50.4921L35.8096 39.3312" stroke="url(#paint0_linear_4371_68645)" stroke-width="1.5"/>
<path d="M37.2361 59.7288C37.2361 61.0846 36.0658 62.2501 34.538 62.2501C33.0101 62.2501 31.8398 61.0846 31.8398 59.7288C31.8398 58.3731 33.0101 57.2075 34.538 57.2075C36.0658 57.2075 37.2361 58.3731 37.2361 59.7288Z" stroke="url(#paint1_linear_4371_68645)" stroke-width="1.5"/>
<path d="M31.0662 56.4573C31.0662 57.5868 30.7234 58.5803 30.2053 59.2742C29.6873 59.9681 29.0298 60.3256 28.3681 60.3256C27.7063 60.3256 27.0489 59.9681 26.5308 59.2742C26.0127 58.5803 25.6699 57.5868 25.6699 56.4573C25.6699 55.3278 26.0127 54.3343 26.5308 53.6404C27.0489 52.9465 27.7063 52.589 28.3681 52.589C29.0298 52.589 29.6873 52.9465 30.2053 53.6404C30.7234 54.3343 31.0662 55.3278 31.0662 56.4573Z" stroke="url(#paint2_linear_4371_68645)" stroke-width="1.5"/>
<path d="M17.842 43.3524C19.5003 43.3524 21.136 45.0979 21.2587 47.6784C20.1651 48.7826 19.6615 50.0217 19.2826 50.954C19.2395 51.0599 19.1981 51.1619 19.1576 51.2593C18.9337 51.7972 18.7635 52.1348 18.564 52.3492C18.4078 52.517 18.2172 52.6284 17.842 52.6284C16.1178 52.6284 14.418 50.7413 14.418 47.9904C14.418 45.2396 16.1178 43.3524 17.842 43.3524Z" stroke="url(#paint3_linear_4371_68645)" stroke-width="1.5"/>
<path d="M25.2593 52.6087C25.2593 53.8494 24.8933 54.9421 24.3391 55.7061C23.7842 56.4709 23.082 56.8619 22.3796 56.8619C21.6772 56.8619 20.975 56.4709 20.4202 55.7061C19.8659 54.9421 19.5 53.8494 19.5 52.6087C19.5 51.368 19.8659 50.2754 20.4202 49.5114C20.975 48.7466 21.6772 48.3556 22.3796 48.3556C23.082 48.3556 23.7842 48.7466 24.3391 49.5114C24.8933 50.2754 25.2593 51.368 25.2593 52.6087Z" stroke="url(#paint4_linear_4371_68645)" stroke-width="1.5"/>
<defs>
<linearGradient id="paint0_linear_4371_68645" x1="33.9948" y1="2" x2="33.9948" y2="61.234" gradientUnits="userSpaceOnUse">
<stop stop-color="#F6820B"/>
<stop offset="1" stop-color="#5E29FF"/>
</linearGradient>
<linearGradient id="paint1_linear_4371_68645" x1="34.538" y1="56.4575" x2="34.538" y2="63.0001" gradientUnits="userSpaceOnUse">
<stop stop-color="#F6820B"/>
<stop offset="1" stop-color="#5E29FF"/>
</linearGradient>
<linearGradient id="paint2_linear_4371_68645" x1="28.3681" y1="51.839" x2="28.3681" y2="61.0756" gradientUnits="userSpaceOnUse">
<stop stop-color="#F6820B"/>
<stop offset="1" stop-color="#5E29FF"/>
</linearGradient>
<linearGradient id="paint3_linear_4371_68645" x1="17.842" y1="42.6024" x2="17.842" y2="53.3784" gradientUnits="userSpaceOnUse">
<stop stop-color="#F6820B"/>
<stop offset="1" stop-color="#5E29FF"/>
</linearGradient>
<linearGradient id="paint4_linear_4371_68645" x1="22.3796" y1="47.6056" x2="22.3796" y2="57.6119" gradientUnits="userSpaceOnUse">
<stop stop-color="#F6820B"/>
<stop offset="1" stop-color="#5E29FF"/>
</linearGradient>
</defs>
</svg>
