<svg width="325" height="235" viewBox="0 0 325 235" fill="none" xmlns="http://www.w3.org/2000/svg">
<g clip-path="url(#clip0_3465_67628)">
<path d="M324.53 233.198H0.469653C0.345093 233.198 0.225635 233.148 0.137558 233.06C0.0494808 232.972 0 232.852 0 232.728C0 232.603 0.0494808 232.483 0.137558 232.395C0.225635 232.307 0.345093 232.258 0.469653 232.258H324.53C324.655 232.258 324.774 232.307 324.862 232.395C324.951 232.483 325 232.603 325 232.728C325 232.852 324.951 232.972 324.862 233.06C324.774 233.148 324.655 233.198 324.53 233.198Z" fill="#CCCCCC"/>
<path d="M292.455 151.209H101.776C100.966 151.209 100.19 151.531 99.6173 152.104C99.0448 152.677 98.7231 153.454 98.7231 154.264C98.7231 155.075 99.0448 155.852 99.6173 156.425C100.19 156.998 100.966 157.32 101.776 157.32H107.177V230.423C107.177 231.234 107.499 232.011 108.071 232.584C108.644 233.157 109.42 233.479 110.23 233.479C111.039 233.479 111.816 233.157 112.388 232.584C112.961 232.011 113.282 231.234 113.282 230.423L113.329 157.32H280.479V230.423C280.479 231.234 280.801 232.011 281.373 232.584C281.946 233.157 282.722 233.479 283.532 233.479C284.341 233.479 285.118 233.157 285.69 232.584C286.263 232.011 286.584 231.234 286.584 230.423V158.932L287.473 157.32H292.455C293.265 157.32 294.041 156.998 294.614 156.425C295.186 155.852 295.508 155.075 295.508 154.264C295.508 153.454 295.186 152.677 294.614 152.104C294.041 151.531 293.265 151.209 292.455 151.209Z" fill="#CCCCCC"/>
<path d="M207.49 152.808H149.731C148.613 152.807 147.541 152.361 146.75 151.57C145.959 150.778 145.514 149.705 145.513 148.585V116.754C145.514 115.635 145.959 114.562 146.75 113.77C147.541 112.978 148.613 112.533 149.731 112.532H207.49C208.608 112.533 209.681 112.978 210.472 113.77C211.262 114.562 211.707 115.635 211.708 116.754V148.585C211.707 149.705 211.262 150.778 210.472 151.57C209.681 152.361 208.608 152.807 207.49 152.808Z" fill="#3F3D56"/>
<path d="M207.49 115.782H149.732C149.474 115.782 149.227 115.885 149.045 116.067C148.863 116.25 148.76 116.497 148.76 116.755V148.586C148.76 148.844 148.863 149.091 149.045 149.274C149.227 149.456 149.474 149.559 149.732 149.559H207.49C207.747 149.559 207.994 149.456 208.177 149.274C208.359 149.091 208.461 148.844 208.462 148.586V116.755C208.461 116.497 208.359 116.25 208.177 116.067C207.994 115.885 207.747 115.782 207.49 115.782Z" fill="white"/>
<path d="M212.357 148.91H206.192C206.192 148.738 206.124 148.573 206.002 148.451C205.88 148.329 205.715 148.261 205.543 148.261H203.596C203.424 148.261 203.259 148.329 203.137 148.451C203.015 148.573 202.947 148.738 202.947 148.91H201C201 148.738 200.932 148.573 200.81 148.451C200.688 148.329 200.523 148.261 200.351 148.261H198.404C198.232 148.261 198.067 148.329 197.945 148.451C197.824 148.573 197.755 148.738 197.755 148.91H195.808C195.808 148.738 195.74 148.573 195.618 148.451C195.497 148.329 195.332 148.261 195.159 148.261H193.212C193.04 148.261 192.875 148.329 192.754 148.451C192.632 148.573 192.564 148.738 192.564 148.91H190.617C190.617 148.738 190.548 148.573 190.427 148.451C190.305 148.329 190.14 148.261 189.968 148.261H188.021C187.849 148.261 187.684 148.329 187.562 148.451C187.44 148.573 187.372 148.738 187.372 148.91H185.425C185.425 148.738 185.356 148.573 185.235 148.451C185.113 148.329 184.948 148.261 184.776 148.261H182.829C182.657 148.261 182.492 148.329 182.37 148.451C182.248 148.573 182.18 148.738 182.18 148.91H180.233C180.233 148.738 180.165 148.573 180.043 148.451C179.921 148.329 179.756 148.261 179.584 148.261H177.637C177.465 148.261 177.3 148.329 177.178 148.451C177.056 148.573 176.988 148.738 176.988 148.91H175.041C175.041 148.738 174.973 148.573 174.851 148.451C174.729 148.329 174.564 148.261 174.392 148.261H172.445C172.273 148.261 172.108 148.329 171.986 148.451C171.865 148.573 171.796 148.738 171.796 148.91H169.849C169.849 148.738 169.781 148.573 169.659 148.451C169.538 148.329 169.373 148.261 169.2 148.261H167.253C167.081 148.261 166.916 148.329 166.795 148.451C166.673 148.573 166.605 148.738 166.604 148.91H164.658C164.658 148.738 164.589 148.573 164.467 148.451C164.346 148.329 164.181 148.261 164.009 148.261H162.062C161.89 148.261 161.725 148.329 161.603 148.451C161.481 148.573 161.413 148.738 161.413 148.91H159.466C159.466 148.738 159.397 148.573 159.276 148.451C159.154 148.329 158.989 148.261 158.817 148.261H156.87C156.698 148.261 156.533 148.329 156.411 148.451C156.289 148.573 156.221 148.738 156.221 148.91H154.274C154.274 148.738 154.206 148.573 154.084 148.451C153.962 148.329 153.797 148.261 153.625 148.261H151.678C151.506 148.261 151.341 148.329 151.219 148.451C151.097 148.573 151.029 148.738 151.029 148.91H144.864C144.348 148.911 143.854 149.117 143.489 149.482C143.125 149.847 142.92 150.343 142.92 150.859C142.92 151.375 143.125 151.871 143.489 152.236C143.854 152.601 144.348 152.807 144.864 152.808H212.357C212.874 152.808 213.369 152.603 213.734 152.237C214.099 151.872 214.304 151.376 214.304 150.859C214.304 150.342 214.099 149.847 213.734 149.481C213.369 149.116 212.874 148.91 212.357 148.91Z" fill="#3F3D56"/>
<path d="M134.828 137.593V150.533H102.439C101.572 150.563 100.707 150.418 99.8962 150.107C99.0856 149.795 98.3459 149.323 97.7214 148.72C97.0968 148.116 96.6001 147.392 96.2609 146.592C95.9217 145.792 95.7468 144.932 95.7468 144.063C95.7468 143.194 95.9217 142.334 96.2609 141.533C96.6001 140.733 97.0968 140.01 97.7214 139.406C98.3459 138.802 99.0856 138.331 99.8962 138.019C100.707 137.708 101.572 137.563 102.439 137.593H134.828Z" fill="#F2F2F2"/>
<path d="M135.623 150.433C135.623 150.565 135.571 150.692 135.477 150.785C135.384 150.879 135.258 150.931 135.126 150.931H101.862C100.056 150.931 98.3231 150.213 97.0457 148.934C95.7682 147.655 95.0505 145.921 95.0505 144.113C95.0505 142.304 95.7682 140.57 97.0457 139.291C98.3231 138.012 100.056 137.294 101.862 137.294H135.126C135.258 137.294 135.384 137.347 135.477 137.44C135.571 137.533 135.623 137.66 135.623 137.792C135.623 137.924 135.571 138.05 135.477 138.144C135.384 138.237 135.258 138.289 135.126 138.289H101.862C100.32 138.291 98.8421 138.905 97.7522 139.997C96.6624 141.089 96.0502 142.569 96.0502 144.113C96.0502 145.656 96.6624 147.136 97.7522 148.228C98.8421 149.32 100.32 149.934 101.862 149.936H135.126C135.258 149.936 135.384 149.988 135.477 150.082C135.571 150.175 135.623 150.301 135.623 150.433Z" fill="#0BB2AD"/>
<path d="M134.828 140.579H100.023C100.01 140.579 99.9966 140.577 99.9845 140.572C99.9723 140.567 99.9613 140.559 99.952 140.55C99.9427 140.541 99.9353 140.53 99.9302 140.518C99.9252 140.506 99.9226 140.493 99.9226 140.479C99.9226 140.466 99.9252 140.453 99.9302 140.441C99.9353 140.429 99.9427 140.418 99.952 140.409C99.9613 140.4 99.9723 140.392 99.9845 140.387C99.9966 140.382 100.01 140.38 100.023 140.38H134.828C134.854 140.38 134.879 140.391 134.898 140.409C134.916 140.428 134.926 140.453 134.926 140.479C134.926 140.506 134.916 140.531 134.898 140.55C134.879 140.568 134.854 140.579 134.828 140.579Z" fill="#CCCCCC"/>
<path d="M134.828 142.968H100.023C100.01 142.968 99.9966 142.965 99.9845 142.96C99.9723 142.956 99.9613 142.948 99.952 142.939C99.9427 142.93 99.9353 142.919 99.9302 142.907C99.9252 142.894 99.9226 142.881 99.9226 142.868C99.9226 142.855 99.9252 142.842 99.9302 142.83C99.9353 142.818 99.9427 142.807 99.952 142.798C99.9613 142.788 99.9723 142.781 99.9845 142.776C99.9966 142.771 100.01 142.769 100.023 142.769H134.828C134.854 142.769 134.879 142.78 134.898 142.798C134.916 142.817 134.926 142.842 134.926 142.868C134.926 142.895 134.916 142.92 134.898 142.938C134.879 142.957 134.854 142.968 134.828 142.968Z" fill="#CCCCCC"/>
<path d="M134.828 145.357H100.023C100.01 145.357 99.9966 145.355 99.9845 145.35C99.9723 145.345 99.9613 145.337 99.952 145.328C99.9427 145.319 99.9353 145.308 99.9302 145.296C99.9252 145.284 99.9226 145.271 99.9226 145.257C99.9226 145.244 99.9252 145.231 99.9302 145.219C99.9353 145.207 99.9427 145.196 99.952 145.187C99.9613 145.177 99.9723 145.17 99.9845 145.165C99.9966 145.16 100.01 145.158 100.023 145.158H134.828C134.854 145.158 134.879 145.169 134.898 145.187C134.916 145.206 134.926 145.231 134.926 145.257C134.926 145.284 134.916 145.309 134.898 145.328C134.879 145.346 134.854 145.357 134.828 145.357Z" fill="#CCCCCC"/>
<path d="M134.828 147.746H100.023C100.01 147.746 99.9966 147.743 99.9845 147.738C99.9723 147.733 99.9613 147.726 99.952 147.717C99.9427 147.708 99.9353 147.697 99.9302 147.685C99.9252 147.672 99.9226 147.659 99.9226 147.646C99.9226 147.633 99.9252 147.62 99.9302 147.608C99.9353 147.596 99.9427 147.585 99.952 147.576C99.9613 147.566 99.9723 147.559 99.9845 147.554C99.9966 147.549 100.01 147.547 100.023 147.547H134.828C134.854 147.547 134.879 147.558 134.898 147.576C134.916 147.595 134.926 147.62 134.926 147.646C134.926 147.673 134.916 147.698 134.898 147.716C134.879 147.735 134.854 147.746 134.828 147.746Z" fill="#CCCCCC"/>
<path d="M128.722 123.959V136.9H96.334C95.4662 136.93 94.6013 136.785 93.7907 136.473C92.9801 136.162 92.2405 135.69 91.6159 135.086C90.9914 134.482 90.4947 133.759 90.1554 132.959C89.8162 132.159 89.6414 131.299 89.6414 130.43C89.6414 129.56 89.8162 128.7 90.1554 127.9C90.4947 127.1 90.9914 126.377 91.6159 125.773C92.2405 125.169 92.9801 124.697 93.7907 124.386C94.6013 124.074 95.4662 123.929 96.334 123.959H128.722Z" fill="#F2F2F2"/>
<path d="M129.518 136.8C129.518 136.932 129.465 137.059 129.372 137.152C129.279 137.245 129.152 137.298 129.02 137.298H95.7569C94.8623 137.298 93.9766 137.121 93.1501 136.779C92.3237 136.436 91.5727 135.934 90.9402 135.301C90.3077 134.668 89.8059 133.916 89.4636 133.089C89.1213 132.261 88.9451 131.375 88.9451 130.479C88.9451 129.584 89.1213 128.697 89.4636 127.87C89.8059 127.043 90.3077 126.291 90.9402 125.658C91.5727 125.025 92.3237 124.522 93.1501 124.18C93.9766 123.837 94.8623 123.661 95.7569 123.661H129.02C129.152 123.661 129.279 123.713 129.372 123.807C129.465 123.9 129.518 124.026 129.518 124.158C129.518 124.29 129.465 124.417 129.372 124.51C129.279 124.604 129.152 124.656 129.02 124.656H95.7569C94.2149 124.658 92.7366 125.272 91.6467 126.364C90.5569 127.455 89.9447 128.936 89.9447 130.479C89.9447 132.023 90.5569 133.503 91.6467 134.595C92.7366 135.687 94.2149 136.301 95.7569 136.302H129.02C129.152 136.302 129.279 136.355 129.372 136.448C129.465 136.542 129.518 136.668 129.518 136.8Z" fill="#3F3D56"/>
<path d="M128.722 126.946H93.9173C93.9042 126.946 93.8911 126.943 93.879 126.938C93.8669 126.933 93.8558 126.926 93.8465 126.917C93.8372 126.907 93.8298 126.896 93.8248 126.884C93.8197 126.872 93.8171 126.859 93.8171 126.846C93.8171 126.833 93.8197 126.82 93.8248 126.808C93.8298 126.796 93.8372 126.785 93.8465 126.775C93.8558 126.766 93.8669 126.759 93.879 126.754C93.8911 126.749 93.9042 126.746 93.9173 126.746H128.722C128.748 126.747 128.774 126.757 128.792 126.776C128.811 126.795 128.821 126.82 128.821 126.846C128.821 126.872 128.811 126.898 128.792 126.916C128.774 126.935 128.748 126.945 128.722 126.946Z" fill="#CCCCCC"/>
<path d="M128.722 129.335H93.9173C93.9042 129.335 93.8911 129.332 93.879 129.327C93.8669 129.322 93.8558 129.315 93.8465 129.306C93.8372 129.296 93.8298 129.285 93.8248 129.273C93.8197 129.261 93.8171 129.248 93.8171 129.235C93.8171 129.222 93.8197 129.209 93.8248 129.197C93.8298 129.185 93.8372 129.174 93.8465 129.164C93.8558 129.155 93.8669 129.148 93.879 129.143C93.8911 129.138 93.9042 129.135 93.9173 129.136H128.722C128.748 129.136 128.774 129.146 128.792 129.165C128.811 129.184 128.821 129.209 128.821 129.235C128.821 129.261 128.811 129.287 128.792 129.305C128.774 129.324 128.748 129.334 128.722 129.335Z" fill="#CCCCCC"/>
<path d="M128.722 131.723H93.9173C93.9042 131.724 93.8911 131.721 93.879 131.716C93.8669 131.711 93.8558 131.704 93.8465 131.695C93.8372 131.685 93.8298 131.674 93.8248 131.662C93.8197 131.65 93.8171 131.637 93.8171 131.624C93.8171 131.611 93.8197 131.598 93.8248 131.586C93.8298 131.574 93.8372 131.563 93.8465 131.553C93.8558 131.544 93.8669 131.537 93.879 131.532C93.8911 131.527 93.9042 131.524 93.9173 131.524H128.722C128.748 131.525 128.774 131.535 128.792 131.554C128.811 131.572 128.821 131.598 128.821 131.624C128.821 131.65 128.811 131.675 128.792 131.694C128.774 131.713 128.748 131.723 128.722 131.723Z" fill="#CCCCCC"/>
<path d="M128.722 134.113H93.9173C93.9042 134.113 93.8911 134.11 93.879 134.105C93.8669 134.1 93.8558 134.093 93.8465 134.084C93.8372 134.074 93.8298 134.063 93.8248 134.051C93.8197 134.039 93.8171 134.026 93.8171 134.013C93.8171 134 93.8197 133.987 93.8248 133.975C93.8298 133.963 93.8372 133.952 93.8465 133.942C93.8558 133.933 93.8669 133.926 93.879 133.921C93.8911 133.916 93.9042 133.913 93.9173 133.913H128.722C128.748 133.914 128.774 133.924 128.792 133.943C128.811 133.961 128.821 133.987 128.821 134.013C128.821 134.039 128.811 134.064 128.792 134.083C128.774 134.102 128.748 134.112 128.722 134.113Z" fill="#CCCCCC"/>
<path d="M166.4 196.529V185.246C166.4 184.747 166.202 184.269 165.849 183.916C165.497 183.564 165.019 183.365 164.521 183.365H121.783C121.284 183.365 120.807 183.564 120.454 183.916C120.102 184.269 119.904 184.747 119.904 185.246V196.529H166.4Z" fill="#CCCCCC"/>
<path d="M166.4 200.76H119.904V215.333H166.4V200.76Z" fill="#CCCCCC"/>
<path d="M119.904 219.564V230.847C119.904 231.346 120.102 231.824 120.454 232.177C120.807 232.53 121.284 232.728 121.783 232.728H164.521C165.019 232.728 165.497 232.53 165.849 232.177C166.202 231.824 166.4 231.346 166.4 230.847V219.564H119.904Z" fill="#CCCCCC"/>
<path d="M142.917 191.828C143.695 191.828 144.326 191.196 144.326 190.417C144.326 189.638 143.695 189.007 142.917 189.007C142.139 189.007 141.508 189.638 141.508 190.417C141.508 191.196 142.139 191.828 142.917 191.828Z" fill="white"/>
<path d="M142.917 210.632C143.695 210.632 144.326 210.001 144.326 209.222C144.326 208.443 143.695 207.812 142.917 207.812C142.139 207.812 141.508 208.443 141.508 209.222C141.508 210.001 142.139 210.632 142.917 210.632Z" fill="white"/>
<path d="M142.992 229.039C143.771 229.039 144.401 228.407 144.401 227.628C144.401 226.849 143.771 226.218 142.992 226.218C142.214 226.218 141.583 226.849 141.583 227.628C141.583 228.407 142.214 229.039 142.992 229.039Z" fill="white"/>
<path d="M161.128 170.501V183.441H128.74C127.872 183.471 127.007 183.326 126.197 183.015C125.386 182.703 124.646 182.232 124.022 181.628C123.397 181.024 122.901 180.3 122.561 179.5C122.222 178.7 122.047 177.84 122.047 176.971C122.047 176.102 122.222 175.242 122.561 174.442C122.901 173.642 123.397 172.918 124.022 172.314C124.646 171.71 125.386 171.239 126.197 170.927C127.007 170.616 127.872 170.471 128.74 170.501H161.128Z" fill="#F2F2F2"/>
<path d="M161.924 183.342C161.924 183.474 161.872 183.6 161.778 183.694C161.685 183.787 161.559 183.839 161.427 183.839H128.163C127.268 183.84 126.382 183.664 125.555 183.322C124.728 182.98 123.976 182.477 123.343 181.844C122.71 181.211 122.207 180.459 121.865 179.631C121.522 178.804 121.346 177.917 121.346 177.021C121.346 176.125 121.522 175.238 121.865 174.41C122.207 173.583 122.71 172.831 123.343 172.197C123.976 171.564 124.728 171.062 125.555 170.72C126.382 170.377 127.268 170.202 128.163 170.202H161.427C161.559 170.202 161.685 170.255 161.778 170.348C161.872 170.441 161.924 170.568 161.924 170.7C161.924 170.832 161.872 170.959 161.778 171.052C161.685 171.145 161.559 171.198 161.427 171.198H128.163C126.621 171.199 125.143 171.813 124.053 172.905C122.963 173.997 122.351 175.477 122.351 177.021C122.351 178.564 122.963 180.045 124.053 181.137C125.143 182.228 126.621 182.843 128.163 182.844H161.427C161.559 182.844 161.685 182.896 161.778 182.99C161.871 183.083 161.924 183.21 161.924 183.342Z" fill="#3F3D56"/>
<path d="M161.128 173.487H126.324C126.31 173.487 126.297 173.485 126.285 173.48C126.273 173.475 126.262 173.467 126.253 173.458C126.243 173.449 126.236 173.438 126.231 173.426C126.226 173.414 126.223 173.401 126.223 173.388C126.223 173.374 126.226 173.361 126.231 173.349C126.236 173.337 126.243 173.326 126.253 173.317C126.262 173.308 126.273 173.3 126.285 173.295C126.297 173.29 126.31 173.288 126.324 173.288H161.128C161.155 173.288 161.18 173.299 161.198 173.317C161.217 173.336 161.227 173.361 161.227 173.388C161.227 173.414 161.217 173.439 161.198 173.458C161.18 173.476 161.155 173.487 161.128 173.487Z" fill="#CCCCCC"/>
<path d="M161.128 175.876H126.324C126.31 175.876 126.297 175.874 126.285 175.869C126.273 175.864 126.262 175.856 126.253 175.847C126.243 175.838 126.236 175.827 126.231 175.815C126.226 175.803 126.223 175.79 126.223 175.777C126.223 175.763 126.226 175.75 126.231 175.738C126.236 175.726 126.243 175.715 126.253 175.706C126.262 175.697 126.273 175.689 126.285 175.684C126.297 175.679 126.31 175.677 126.324 175.677H161.128C161.155 175.677 161.18 175.688 161.198 175.706C161.217 175.725 161.227 175.75 161.227 175.777C161.227 175.803 161.217 175.828 161.198 175.847C161.18 175.865 161.155 175.876 161.128 175.876Z" fill="#CCCCCC"/>
<path d="M161.128 178.265H126.324C126.31 178.265 126.297 178.263 126.285 178.258C126.273 178.253 126.262 178.245 126.253 178.236C126.243 178.227 126.236 178.216 126.231 178.204C126.226 178.192 126.223 178.179 126.223 178.165C126.223 178.152 126.226 178.139 126.231 178.127C126.236 178.115 126.243 178.104 126.253 178.095C126.262 178.086 126.273 178.078 126.285 178.073C126.297 178.068 126.31 178.066 126.324 178.066H161.128C161.155 178.066 161.18 178.077 161.198 178.095C161.217 178.114 161.227 178.139 161.227 178.165C161.227 178.192 161.217 178.217 161.198 178.236C161.18 178.254 161.155 178.265 161.128 178.265Z" fill="#CCCCCC"/>
<path d="M161.128 180.654H126.324C126.31 180.654 126.297 180.652 126.285 180.647C126.273 180.642 126.262 180.634 126.253 180.625C126.243 180.616 126.236 180.605 126.231 180.593C126.226 180.581 126.223 180.568 126.223 180.554C126.223 180.541 126.226 180.528 126.231 180.516C126.236 180.504 126.243 180.493 126.253 180.484C126.262 180.475 126.273 180.467 126.285 180.462C126.297 180.457 126.31 180.455 126.324 180.455H161.128C161.155 180.455 161.18 180.466 161.198 180.484C161.217 180.503 161.227 180.528 161.227 180.554C161.227 180.581 161.217 180.606 161.198 180.625C161.18 180.643 161.155 180.654 161.128 180.654Z" fill="#CCCCCC"/>
<path d="M117.465 86.0413V3.53595C117.466 2.59848 117.839 1.69972 118.501 1.03684C119.163 0.373949 120.061 0.00106633 120.998 0H186.152C187.089 0.00107254 187.987 0.373957 188.649 1.03684C189.311 1.69973 189.684 2.59849 189.685 3.53595V86.0413C189.684 86.9788 189.311 87.8775 188.649 88.5404C187.987 89.2033 187.089 89.5762 186.152 89.5772H120.998C120.061 89.5762 119.163 89.2033 118.501 88.5404C117.839 87.8775 117.466 86.9788 117.465 86.0413ZM120.998 0.785767C120.269 0.786583 119.571 1.0766 119.056 1.59218C118.541 2.10776 118.251 2.80681 118.25 3.53595V86.0413C118.251 86.7704 118.541 87.4695 119.056 87.9851C119.571 88.5006 120.269 88.7906 120.998 88.7915H186.152C186.881 88.7906 187.579 88.5006 188.094 87.9851C188.609 87.4695 188.899 86.7704 188.9 86.0413V3.53595C188.899 2.80681 188.609 2.10776 188.094 1.59218C187.579 1.0766 186.881 0.786585 186.152 0.785767H120.998Z" fill="#E6E6E6"/>
<path d="M157.229 37.8902V20.9493C157.229 20.4805 157.415 20.0311 157.746 19.6997C158.078 19.3682 158.526 19.1818 158.995 19.1813H173.337C173.805 19.1818 174.254 19.3682 174.585 19.6997C174.916 20.0311 175.102 20.4805 175.103 20.9493V37.8902C175.102 38.3589 174.916 38.8083 174.585 39.1398C174.254 39.4712 173.805 39.6577 173.337 39.6582H158.995C158.526 39.6577 158.078 39.4712 157.746 39.1398C157.415 38.8083 157.229 38.3589 157.229 37.8902Z" fill="#0BB2AD"/>
<path d="M129.361 45.7479V28.807C129.362 28.3383 129.548 27.8889 129.879 27.5575C130.21 27.226 130.659 27.0396 131.128 27.0391H145.469C145.938 27.0396 146.387 27.226 146.718 27.5575C147.049 27.8889 147.235 28.3383 147.236 28.807V45.748C147.235 46.2167 147.049 46.6661 146.718 46.9976C146.387 47.329 145.938 47.5154 145.469 47.5159H131.128C130.659 47.5154 130.21 47.329 129.879 46.9975C129.548 46.6661 129.362 46.2167 129.361 45.7479Z" fill="#CCCCCC"/>
<path d="M151.733 69.7138V52.7729C151.734 52.3041 151.92 51.8547 152.251 51.5233C152.582 51.1918 153.031 51.0054 153.5 51.0049H167.841C168.31 51.0054 168.759 51.1918 169.09 51.5233C169.421 51.8547 169.607 52.3041 169.608 52.7729V69.7138C169.607 70.1825 169.421 70.6319 169.09 70.9634C168.759 71.2948 168.31 71.4812 167.841 71.4818H153.5C153.031 71.4812 152.582 71.2948 152.251 70.9634C151.92 70.6319 151.734 70.1825 151.733 69.7138Z" fill="#FF6584"/>
<path d="M237.439 147.167H222.683C222.543 147.166 222.405 147.199 222.279 147.261L218.555 149.127C218.432 149.179 218.327 149.266 218.254 149.377C218.181 149.489 218.141 149.619 218.141 149.752C218.141 149.886 218.181 150.016 218.254 150.127C218.327 150.238 218.432 150.325 218.555 150.377L222.279 152.244C222.405 152.306 222.543 152.338 222.683 152.338H237.439C237.643 152.35 237.842 152.281 237.995 152.146C238.148 152.011 238.242 151.822 238.257 151.619V147.886C238.242 147.682 238.148 147.493 237.995 147.358C237.842 147.224 237.643 147.155 237.439 147.167Z" fill="#3F3D56"/>
<path d="M238.257 147.886V151.619C238.242 151.822 238.149 152.011 237.996 152.146C237.843 152.281 237.643 152.35 237.439 152.338H234.5V147.167H237.439C237.643 147.155 237.843 147.224 237.996 147.358C238.149 147.493 238.242 147.683 238.257 147.886Z" fill="#0BB2AD"/>
<path d="M51.2262 168.301C48.2538 169.347 45.0624 169.609 41.9595 169.061C38.8566 168.514 35.9467 167.177 33.5103 165.177C27.3052 159.964 25.3598 151.375 23.7768 143.422C22.2161 135.581 20.6554 127.741 19.0947 119.9L28.8972 126.656C35.9465 131.515 43.1546 136.529 48.0356 143.567C52.9165 150.604 55.047 160.211 51.1253 167.826" fill="#E6E6E6"/>
<path d="M50.3881 196.78C51.3803 189.546 52.4004 182.219 51.7045 174.908C51.0865 168.414 49.1074 162.072 45.0783 156.872C42.9396 154.117 40.3373 151.756 37.3882 149.897C36.6192 149.411 35.9114 150.631 36.6771 151.114C41.7798 154.343 45.7265 159.109 47.9482 164.727C50.4021 170.975 50.7962 177.785 50.3733 184.422C50.1176 188.436 49.5756 192.423 49.0295 196.405C48.9864 196.585 49.0133 196.775 49.1046 196.936C49.196 197.097 49.345 197.217 49.5215 197.272C49.7016 197.321 49.8937 197.296 50.0559 197.204C50.2181 197.112 50.3375 196.959 50.3881 196.78H50.3881Z" fill="#F2F2F2"/>
<path d="M40.8322 183.979C39.5574 185.919 37.8051 187.497 35.7441 188.561C33.6832 189.626 31.383 190.142 29.0652 190.058C23.1085 189.775 18.1425 185.614 13.6722 181.663L0.449951 169.977L9.20091 169.558C15.4941 169.257 21.9496 168.975 27.9436 170.918C33.9377 172.861 39.4657 177.536 40.5617 183.746" fill="#E6E6E6"/>
<path d="M53.1922 200.938C48.4169 192.48 42.878 183.08 32.9808 180.076C30.2289 179.243 27.3434 178.945 24.4796 179.197C23.577 179.275 23.8024 180.668 24.7034 180.59C29.5037 180.191 34.2948 181.46 38.27 184.183C42.0953 186.789 45.0736 190.413 47.5945 194.255C49.1387 196.609 50.5218 199.062 51.9052 201.513C52.3473 202.296 53.6395 201.73 53.1922 200.938Z" fill="#F2F2F2"/>
<path d="M60.8435 209.841C60.6826 207.974 60.0132 206.188 58.9083 204.677C57.8034 203.165 56.3052 201.986 54.577 201.267V196.378H46.384V201.421C44.7409 202.175 43.3268 203.351 42.2859 204.83C41.245 206.309 40.6145 208.038 40.4588 209.841L38.5322 232.257H62.77L60.8435 209.841Z" fill="#F2F2F2"/>
</g>
<defs>
<clipPath id="clip0_3465_67628">
<rect width="325" height="235" fill="white"/>
</clipPath>
</defs>
</svg>
