<svg width="194" height="63" viewBox="0 0 194 63" fill="none" xmlns="http://www.w3.org/2000/svg">
<path d="M21.6198 17.6904L21.7183 17.4C22.7761 14.4185 23.6939 12.3185 24.4613 11.1C24.8294 10.5244 25.3428 10.0111 26.0013 9.55998C27.2354 8.77701 28.4021 8.38293 29.491 8.38293C30.1339 8.38293 30.6213 8.52812 30.9584 8.81849C31.2954 9.10887 31.4665 9.52368 31.4665 10.0733C31.4665 10.4415 31.2228 11.1985 30.7406 12.3341C29.9161 14.2267 29.3043 15.9948 28.8998 17.6489C29.1747 17.68 29.4391 17.7319 29.6932 17.7941C30.6576 17.9393 31.2902 18.1052 31.5962 18.2867C31.9021 18.4734 32.0525 18.8052 32.0525 19.2823C32.0525 20.1326 31.8347 20.9208 31.4043 21.6415C30.9739 22.3623 30.4036 22.8912 29.6984 23.2282C29.1695 23.4667 28.3139 23.6275 27.1265 23.7104C26.9191 24.3378 26.6909 25.1934 26.4369 26.2875C26.2917 27.2519 26.1361 28.5845 25.9598 30.2801C25.8613 30.9075 25.8146 31.4883 25.8146 32.0327C25.8146 34.5631 27.0435 35.8283 29.4961 35.8283H29.6413H29.7139C30.0043 35.8283 30.1443 35.875 30.1443 35.9735C30.1443 36.2276 29.8695 36.6631 29.325 37.2698C28.7806 37.8816 28.1791 38.4157 27.5206 38.8824C26.8154 39.3646 26.0428 39.7483 25.208 40.0387C24.3732 40.3291 23.6161 40.4691 22.942 40.4691C21.2568 40.4691 19.8879 39.8987 18.8353 38.7631C17.7827 37.6224 17.259 36.1187 17.259 34.2416C17.259 33.4379 17.399 32.3905 17.679 31.089C17.959 29.7927 18.3946 28.0505 18.9909 25.8675C19.0894 25.4838 19.1931 25.0793 19.302 24.6541C19.4161 24.229 19.4783 23.9749 19.4939 23.8971C18.8509 23.8816 18.3946 23.7467 18.125 23.4875C17.8501 23.2334 17.7153 22.8134 17.7153 22.2378C17.7153 21.2267 18.1042 20.2726 18.882 19.3756C19.665 18.4786 20.5776 17.9185 21.6198 17.6904Z" fill="#0BB2AD"/>
<path d="M42.0372 33.5004C42.2901 34.5118 42.7958 35.0174 43.8071 35.0174C45.0713 35.0174 46.5883 34.2589 48.3582 32.9947C49.3696 32.2362 50.1281 31.7305 50.6338 31.7305C51.1394 31.7305 51.6451 31.7305 51.898 31.9834C52.4036 32.2362 52.4036 32.4891 52.4036 32.7419C52.4036 32.9947 52.1508 33.5004 51.6451 33.7532C50.8866 34.5118 49.8752 35.2703 48.6111 36.2816C47.3469 37.293 46.3355 37.7987 45.3241 38.3043C44.3128 38.81 43.3014 39.3157 42.2901 39.5685C41.2787 39.8214 40.2674 40.0742 39.5089 40.0742C37.4862 40.0742 35.9691 39.5685 34.7049 38.3043C33.4407 37.293 32.9351 35.776 32.9351 33.7532C32.9351 32.2362 33.1879 30.7192 33.9464 28.9493C34.4521 27.1794 35.4634 25.4096 36.4748 23.8925C38.4975 22.1227 40.0145 20.6056 41.7844 19.5943C44.06 18.0772 46.0827 17.3187 48.3582 17.3187C49.8752 17.3187 51.1394 17.8244 51.898 18.5829C52.6565 19.5943 53.1621 20.8585 53.1621 22.3755C53.1621 23.6397 52.9093 24.9039 52.1508 26.4209C51.3923 27.6851 50.3809 29.2022 49.1167 30.4663C48.1054 31.4777 47.094 32.2362 45.8298 32.9947C44.8185 33.5004 43.8071 34.0061 43.0486 34.0061C42.7958 33.7532 42.5429 33.7532 42.0372 33.5004ZM42.0372 32.7419C42.7958 32.2362 43.3014 31.7305 43.8071 31.2249C44.5656 30.2135 45.3241 28.9493 45.8298 27.6851C46.0827 26.9266 46.5883 25.9152 46.5883 24.9039C46.8412 23.8925 46.8412 22.8812 46.8412 21.8698C46.8412 21.1113 46.5883 20.6056 46.3355 20.6056C45.8298 20.6056 45.0713 21.617 44.06 23.8925C43.5543 25.1567 43.0486 26.4209 42.5429 27.938C42.0372 29.2022 42.0372 30.4663 42.0372 31.2249C41.7844 31.7305 41.7844 32.2362 42.0372 32.7419Z" fill="#0BB2AD"/>
<path d="M70.8609 33.2477C69.3438 35.0175 67.8268 36.2817 66.8155 37.2931C65.5513 38.3044 64.5399 39.063 63.5286 39.8215C62.5172 40.3272 61.5058 40.58 60.7473 40.58C58.9775 40.58 57.4604 40.0743 56.4491 38.8101C55.1849 37.5459 54.6792 36.2817 54.6792 34.259C54.6792 33.2477 54.932 31.7306 55.4377 30.4664C55.9434 28.9494 56.7019 27.4324 57.7133 25.9153C59.2303 23.6398 61.253 21.6171 63.7814 20.1C66.3098 18.3302 68.8382 17.5717 71.3666 17.5717C73.3893 17.5717 75.1591 18.0773 76.4233 18.8358C77.6875 19.5944 78.446 20.6057 78.446 21.8699C78.446 22.8813 78.1932 23.6398 77.4347 24.904C78.1932 24.904 78.9517 24.904 78.9517 25.1568C79.2045 25.4097 79.2046 25.6625 79.2046 26.421C79.2046 26.421 79.2046 26.6739 79.2046 27.4324C79.2046 28.9494 78.9517 30.4664 78.9517 31.7306C78.9517 32.4891 78.9517 32.9948 78.9517 33.2477C78.9517 33.5005 78.9517 34.0062 78.9517 34.5119C78.9517 35.0175 78.9517 35.2704 79.2046 35.5232C79.4574 36.2817 79.4574 37.0402 79.7102 37.7988C78.6989 38.8101 77.9404 39.3158 76.929 39.8215C75.9177 40.3272 75.1591 40.58 74.1478 40.58C71.6194 40.58 70.3552 38.5573 70.3552 34.5119C70.8609 33.7533 70.8609 33.5005 70.8609 33.2477ZM72.3779 27.938L71.8722 28.1909C70.608 28.4437 69.8495 28.6966 69.3438 28.6966C68.8382 28.6966 68.3325 28.4437 68.3325 28.1909C68.3325 28.1909 68.5853 27.6852 68.8382 27.4324C69.8495 26.1682 70.1024 24.904 70.1024 23.6398C70.1024 22.8813 70.1024 22.3756 69.8495 21.8699C69.5967 21.3642 69.3438 21.1114 69.091 21.1114C68.8382 21.1114 68.3325 21.3642 67.8268 21.8699C66.3098 23.3869 65.2984 25.1568 64.2871 26.6739C63.2757 28.1909 63.0229 29.7079 63.0229 30.9721C63.0229 31.7306 63.2757 32.4891 63.5286 32.9948C63.7814 33.5005 64.2871 33.7533 64.7927 33.7533C65.2984 33.7533 66.0569 33.2477 67.3211 32.2363C68.5853 31.225 70.1024 29.9608 71.6194 28.4437L72.3779 27.938Z" fill="#0BB2AD"/>
<path d="M94.6278 17.5717C95.892 17.5717 96.9034 18.0773 97.4091 18.583C97.9147 19.0887 98.4204 20.1 98.4204 21.1114C98.4204 22.1228 98.1676 22.8813 97.6619 23.8926C97.1562 24.904 96.3977 25.6625 95.6392 26.1682C94.8807 26.6739 93.8693 27.1795 93.1108 27.1795C92.6051 27.1795 92.3523 26.9267 92.3523 26.6739C92.3523 26.6739 92.3523 26.1682 92.6051 25.9153C93.1108 24.904 93.6165 23.6398 93.6165 22.3756C93.6165 21.6171 93.6165 21.3642 93.3637 21.3642C93.1108 21.3642 92.858 21.6171 92.3523 22.1228C91.8466 22.6284 91.5938 23.3869 91.3409 24.1455C90.8353 25.4097 90.3296 26.6739 90.0767 27.938C89.8239 29.2022 89.5711 30.4664 89.5711 31.4778C89.5711 32.4891 89.8239 33.2477 90.0767 34.0062C90.3296 34.5119 90.8353 35.0175 91.3409 35.0175C91.8466 35.0175 92.6051 34.7647 93.6165 34.259C94.6278 33.7533 95.3864 32.9948 96.1449 32.2363C96.3977 31.7306 96.6506 31.7306 96.9034 31.7306C97.4091 31.7306 97.4091 31.9835 97.4091 32.2363C97.4091 34.259 96.6506 35.776 95.1335 37.5459C94.1222 38.5573 92.858 39.3158 91.5938 40.0743C90.3296 40.58 89.0654 41.0857 88.054 41.0857C86.2842 41.0857 84.5143 40.58 83.2501 39.3158C81.9859 38.0516 81.4802 36.7874 81.4802 35.0175C81.4802 33.2477 81.9859 31.4778 82.7444 29.4551C83.5029 27.4324 84.7671 25.6625 86.0313 23.8926C87.5484 21.3642 89.0654 19.8472 90.8353 18.8358C92.0995 17.8245 93.3637 17.5717 94.6278 17.5717Z" fill="#0BB2AD"/>
<path d="M116.372 11.5034V11.2506C116.372 10.7449 116.372 10.492 116.119 10.492C115.866 10.492 115.613 10.7449 115.108 11.5034C114.602 12.2619 114.349 12.5148 114.096 13.2733C113.338 15.296 112.326 17.3187 111.821 19.3414C111.062 21.6169 110.556 23.6397 110.304 25.9152C110.051 26.6737 110.051 27.6851 109.798 28.6964C111.315 27.1794 112.579 25.9152 113.338 25.4095C114.096 24.651 115.108 23.8925 116.372 23.134C117.889 22.1226 119.153 21.6169 120.164 21.6169C120.923 21.6169 121.428 21.8698 121.681 22.3755C121.934 22.8811 122.187 23.3868 122.187 24.3982C122.187 24.9039 122.187 25.4095 121.934 26.4209C121.681 28.1908 121.428 29.7078 121.428 30.972C121.428 31.4777 121.428 32.2362 121.681 32.7419C121.681 33.2475 121.934 34.2589 122.44 35.7759C122.693 37.0401 122.946 37.5458 122.946 37.7986C122.946 38.0515 122.693 38.3043 122.187 38.5571C120.417 39.5685 118.9 40.0742 117.636 40.0742C116.372 40.0742 115.613 39.5685 114.855 38.3043C114.096 37.2929 113.843 35.7759 113.843 34.006C113.843 33.2475 113.843 32.489 114.096 31.4777C111.821 33.7532 110.304 35.2702 109.545 36.0288C106.764 38.81 104.488 40.0742 102.971 40.0742C102.213 40.0742 101.707 39.5685 101.201 38.81C100.696 37.7986 100.443 36.7873 100.443 35.2702C100.443 32.2362 101.454 28.1908 103.477 23.134C104.235 21.3641 104.994 19.3414 106.005 17.5715C107.017 15.8017 107.775 14.2846 108.534 13.0204C109.039 12.0091 109.798 11.2506 110.304 10.7449C111.062 9.98636 111.568 9.48069 112.326 8.97501C113.085 8.46933 113.59 8.21649 114.349 7.96365C115.108 7.71082 115.613 7.71082 116.372 7.71082C118.142 7.71082 119.406 8.21649 120.417 9.22785C121.428 10.2392 121.934 11.7562 121.934 13.2733C121.934 14.2846 121.681 15.5488 120.923 16.813C120.164 18.0772 119.406 19.3414 118.142 20.3528C117.383 21.1113 116.625 21.6169 115.613 22.3755C114.602 22.8811 113.843 23.134 113.338 23.134C113.085 23.134 113.085 23.134 112.832 22.8811C112.579 22.8811 112.579 22.6283 112.579 22.3755C112.579 22.1226 112.832 21.6169 113.085 20.8584C113.59 20.0999 114.096 18.8357 114.602 17.8244C115.108 16.5602 115.36 15.296 115.613 14.2846C116.372 13.2733 116.372 12.2619 116.372 11.5034Z" fill="#0BB2AD"/>
<path d="M140.645 16.5602C142.92 16.5602 144.184 16.813 144.184 17.3187C144.184 17.8244 143.679 18.3301 142.667 18.3301C141.403 18.3301 140.139 18.8357 139.128 19.3414C138.116 20.0999 137.105 20.8584 136.094 21.8698C135.335 22.8811 134.576 24.1453 134.071 25.6624C133.565 26.9266 133.312 28.4436 133.312 29.9606C133.312 31.7305 133.818 32.9947 134.576 34.0061C135.335 35.0174 136.346 35.5231 137.863 35.5231C139.128 35.5231 140.139 35.0174 141.15 33.7532C142.162 32.489 142.414 31.2248 142.414 29.455C142.414 28.1908 142.162 26.9266 141.656 25.6624C141.15 24.3982 140.392 23.6397 139.128 22.6283C138.622 22.3755 138.369 22.1226 138.369 21.8698C138.369 21.617 138.622 21.3641 139.38 20.8584C140.139 20.3528 140.897 19.8471 141.909 19.5942C142.92 19.3414 143.679 19.0886 144.184 19.0886C144.943 19.0886 145.701 19.3414 146.207 19.5942C146.966 19.8471 147.471 20.6056 147.977 21.1113C148.483 21.8698 148.735 22.6283 148.988 23.3868C149.241 24.1453 149.494 25.1567 149.494 26.1681C149.494 27.9379 149.241 29.455 148.483 30.972C147.724 32.489 146.966 34.0061 145.954 34.7646C144.69 36.0288 142.92 37.0401 141.15 37.7986C139.38 38.5572 137.358 39.0628 135.841 39.0628C134.071 39.0628 132.554 38.81 131.037 38.3043C129.52 37.7986 128.003 37.0401 127.244 36.0288C125.98 34.7646 125.221 32.9947 125.221 30.7192C125.221 28.9493 125.727 27.1794 126.486 25.4095C126.991 24.3982 128.256 22.6283 129.773 21.3641C131.29 19.8471 133.059 18.8357 134.829 17.8244C136.852 17.0659 138.875 16.5602 140.645 16.5602Z" fill="#0BB2AD"/>
<path d="M167.192 16.5602C169.468 16.5602 170.732 16.813 170.732 17.3187C170.732 17.8244 170.227 18.3301 169.215 18.3301C167.951 18.3301 166.687 18.8357 165.675 19.3414C164.664 20.0999 163.653 20.8584 162.641 21.8698C161.883 22.8811 161.124 24.1453 160.619 25.6624C160.113 27.1794 159.86 28.6964 159.86 30.2135C159.86 31.9833 160.366 33.2475 161.124 34.2589C161.883 35.2703 162.894 35.7759 164.411 35.7759C165.675 35.7759 166.687 35.2702 167.698 34.0061C168.71 32.7419 168.962 31.4777 168.962 29.7078C168.962 28.4436 168.71 27.1794 168.204 25.9152C167.698 24.651 166.94 23.8925 165.675 22.8811C165.17 22.6283 164.917 22.3755 164.917 22.1226C164.917 21.8698 165.17 21.617 165.928 21.1113C166.687 20.6056 167.445 20.0999 168.457 19.8471C169.468 19.5942 170.227 19.3414 170.732 19.3414C171.491 19.3414 172.249 19.5942 172.755 19.8471C173.513 20.0999 174.019 20.8584 174.525 21.3641C175.03 22.1226 175.283 22.8811 175.536 23.6397C175.789 24.3982 176.042 25.4095 176.042 26.4209C176.042 28.1908 175.789 29.7078 175.03 31.2248C174.272 32.7419 173.513 34.2589 172.502 35.0174C171.238 36.2816 169.468 37.293 167.698 38.0515C165.928 38.81 163.906 39.3157 162.389 39.3157C160.619 39.3157 159.102 39.0628 157.585 38.5572C156.068 38.0515 154.551 37.293 153.792 36.2816C152.528 35.0174 151.769 33.2475 151.769 30.972C151.769 29.2021 152.275 27.4322 153.033 25.6624C153.539 24.3982 154.803 22.6283 156.32 21.3641C157.837 19.8471 159.607 18.8357 161.377 17.8244C163.4 17.0659 165.17 16.5602 167.192 16.5602Z" fill="#0BB2AD"/>
<path d="M82.864 52.08V52.98H80.104V60H79.144V52.98H76.384V52.08H82.864ZM85.542 60.12C84.974 60.12 84.466 59.996 84.018 59.748C83.578 59.5 83.234 59.144 82.986 58.68C82.738 58.208 82.614 57.648 82.614 57C82.614 56.352 82.738 55.796 82.986 55.332C83.234 54.86 83.574 54.5 84.006 54.252C84.438 54.004 84.93 53.88 85.482 53.88C86.042 53.88 86.518 54 86.91 54.24C87.31 54.48 87.614 54.808 87.822 55.224C88.03 55.632 88.134 56.092 88.134 56.604C88.134 56.74 88.13 56.864 88.122 56.976C88.114 57.088 88.102 57.188 88.086 57.276H83.238V56.424H87.666L87.174 56.52C87.174 55.944 87.014 55.5 86.694 55.188C86.382 54.876 85.97 54.72 85.458 54.72C85.066 54.72 84.726 54.812 84.438 54.996C84.158 55.172 83.938 55.432 83.778 55.776C83.626 56.112 83.55 56.52 83.55 57C83.55 57.472 83.63 57.88 83.79 58.224C83.95 58.568 84.174 58.832 84.462 59.016C84.758 59.192 85.11 59.28 85.518 59.28C85.958 59.28 86.314 59.196 86.586 59.028C86.866 58.86 87.09 58.632 87.258 58.344L88.014 58.788C87.862 59.06 87.666 59.296 87.426 59.496C87.194 59.696 86.918 59.852 86.598 59.964C86.286 60.068 85.934 60.12 85.542 60.12ZM93.4638 56.124C93.4638 55.676 93.3438 55.332 93.1038 55.092C92.8638 54.844 92.5238 54.72 92.0838 54.72C91.6678 54.72 91.3158 54.812 91.0278 54.996C90.7398 55.172 90.5278 55.46 90.3918 55.86L89.6118 55.38C89.7718 54.932 90.0678 54.572 90.4998 54.3C90.9318 54.02 91.4678 53.88 92.1078 53.88C92.5398 53.88 92.9318 53.956 93.2838 54.108C93.6358 54.252 93.9118 54.476 94.1118 54.78C94.3198 55.076 94.4238 55.46 94.4238 55.932V58.836C94.4238 59.124 94.5758 59.268 94.8798 59.268C95.0318 59.268 95.1798 59.248 95.3238 59.208L95.2758 59.964C95.1158 60.044 94.9078 60.084 94.6518 60.084C94.4198 60.084 94.2118 60.04 94.0278 59.952C93.8438 59.864 93.6998 59.732 93.5958 59.556C93.4918 59.372 93.4398 59.144 93.4398 58.872V58.752L93.6798 58.788C93.5838 59.1 93.4198 59.356 93.1878 59.556C92.9558 59.748 92.6958 59.892 92.4078 59.988C92.1198 60.076 91.8358 60.12 91.5558 60.12C91.2038 60.12 90.8758 60.06 90.5718 59.94C90.2678 59.82 90.0238 59.64 89.8398 59.4C89.6638 59.152 89.5758 58.848 89.5758 58.488C89.5758 58.04 89.7238 57.672 90.0198 57.384C90.3238 57.088 90.7438 56.888 91.2798 56.784L93.6558 56.316V57.108L91.7238 57.504C91.3318 57.584 91.0398 57.696 90.8478 57.84C90.6558 57.984 90.5598 58.184 90.5598 58.44C90.5598 58.688 90.6558 58.892 90.8478 59.052C91.0478 59.204 91.3278 59.28 91.6878 59.28C91.9198 59.28 92.1398 59.252 92.3478 59.196C92.5638 59.132 92.7558 59.04 92.9238 58.92C93.0918 58.792 93.2238 58.636 93.3198 58.452C93.4158 58.26 93.4638 58.036 93.4638 57.78V56.124ZM99.2406 53.88C99.6566 53.88 100.021 53.944 100.333 54.072C100.653 54.2 100.929 54.384 101.161 54.624C101.393 54.864 101.581 55.148 101.725 55.476L100.813 55.908C100.685 55.524 100.489 55.232 100.225 55.032C99.9686 54.824 99.6326 54.72 99.2166 54.72C98.8166 54.72 98.4726 54.812 98.1846 54.996C97.8966 55.172 97.6766 55.432 97.5246 55.776C97.3726 56.112 97.2966 56.52 97.2966 57C97.2966 57.472 97.3726 57.88 97.5246 58.224C97.6766 58.568 97.8966 58.832 98.1846 59.016C98.4726 59.192 98.8166 59.28 99.2166 59.28C99.5286 59.28 99.7966 59.232 100.021 59.136C100.253 59.04 100.441 58.9 100.585 58.716C100.737 58.532 100.841 58.308 100.897 58.044L101.785 58.356C101.649 58.724 101.461 59.04 101.221 59.304C100.989 59.568 100.705 59.772 100.369 59.916C100.041 60.052 99.6646 60.12 99.2406 60.12C98.6806 60.12 98.1806 59.996 97.7406 59.748C97.3006 59.5 96.9566 59.144 96.7086 58.68C96.4606 58.208 96.3366 57.648 96.3366 57C96.3366 56.352 96.4606 55.796 96.7086 55.332C96.9566 54.86 97.3006 54.5 97.7406 54.252C98.1806 54.004 98.6806 53.88 99.2406 53.88ZM103.471 60V51.24H104.431V54.9C104.639 54.54 104.915 54.28 105.259 54.12C105.603 53.96 105.979 53.88 106.387 53.88C106.819 53.88 107.211 53.964 107.563 54.132C107.915 54.292 108.195 54.54 108.403 54.876C108.619 55.212 108.727 55.64 108.727 56.16V60H107.767V56.496C107.767 55.832 107.623 55.372 107.335 55.116C107.055 54.852 106.707 54.72 106.291 54.72C106.003 54.72 105.715 54.788 105.427 54.924C105.139 55.06 104.899 55.284 104.707 55.596C104.523 55.9 104.431 56.308 104.431 56.82V60H103.471ZM117.475 53.88C118.043 53.88 118.543 54.004 118.975 54.252C119.415 54.5 119.759 54.86 120.007 55.332C120.255 55.796 120.379 56.352 120.379 57C120.379 57.648 120.255 58.208 120.007 58.68C119.759 59.144 119.415 59.5 118.975 59.748C118.543 59.996 118.043 60.12 117.475 60.12C116.915 60.12 116.415 59.996 115.975 59.748C115.535 59.5 115.191 59.144 114.943 58.68C114.695 58.208 114.571 57.648 114.571 57C114.571 56.352 114.695 55.796 114.943 55.332C115.191 54.86 115.535 54.5 115.975 54.252C116.415 54.004 116.915 53.88 117.475 53.88ZM117.475 54.708C117.067 54.708 116.719 54.8 116.431 54.984C116.143 55.168 115.919 55.432 115.759 55.776C115.607 56.112 115.531 56.52 115.531 57C115.531 57.472 115.607 57.88 115.759 58.224C115.919 58.568 116.143 58.832 116.431 59.016C116.719 59.2 117.067 59.292 117.475 59.292C117.883 59.292 118.231 59.2 118.519 59.016C118.807 58.832 119.027 58.568 119.179 58.224C119.339 57.88 119.419 57.472 119.419 57C119.419 56.52 119.339 56.112 119.179 55.776C119.027 55.432 118.807 55.168 118.519 54.984C118.231 54.8 117.883 54.708 117.475 54.708ZM123.497 52.296V58.344C123.497 58.64 123.581 58.86 123.749 59.004C123.917 59.148 124.133 59.22 124.397 59.22C124.629 59.22 124.829 59.18 124.997 59.1C125.165 59.02 125.317 58.912 125.453 58.776L125.789 59.58C125.605 59.748 125.385 59.88 125.129 59.976C124.881 60.072 124.593 60.12 124.265 60.12C123.961 60.12 123.677 60.068 123.413 59.964C123.149 59.852 122.937 59.68 122.777 59.448C122.625 59.208 122.545 58.896 122.537 58.512V52.56L123.497 52.296ZM125.681 54V54.828H121.337V54H125.681ZM127.108 60V51.24H128.068V54.9C128.276 54.54 128.552 54.28 128.896 54.12C129.24 53.96 129.616 53.88 130.024 53.88C130.456 53.88 130.848 53.964 131.2 54.132C131.552 54.292 131.832 54.54 132.04 54.876C132.256 55.212 132.364 55.64 132.364 56.16V60H131.404V56.496C131.404 55.832 131.26 55.372 130.972 55.116C130.692 54.852 130.344 54.72 129.928 54.72C129.64 54.72 129.352 54.788 129.064 54.924C128.776 55.06 128.536 55.284 128.344 55.596C128.16 55.9 128.068 56.308 128.068 56.82V60H127.108ZM137.046 60.12C136.478 60.12 135.97 59.996 135.522 59.748C135.082 59.5 134.738 59.144 134.49 58.68C134.242 58.208 134.118 57.648 134.118 57C134.118 56.352 134.242 55.796 134.49 55.332C134.738 54.86 135.078 54.5 135.51 54.252C135.942 54.004 136.434 53.88 136.986 53.88C137.546 53.88 138.022 54 138.414 54.24C138.814 54.48 139.118 54.808 139.326 55.224C139.534 55.632 139.638 56.092 139.638 56.604C139.638 56.74 139.634 56.864 139.626 56.976C139.618 57.088 139.606 57.188 139.59 57.276H134.742V56.424H139.17L138.678 56.52C138.678 55.944 138.518 55.5 138.198 55.188C137.886 54.876 137.474 54.72 136.962 54.72C136.57 54.72 136.23 54.812 135.942 54.996C135.662 55.172 135.442 55.432 135.282 55.776C135.13 56.112 135.054 56.52 135.054 57C135.054 57.472 135.134 57.88 135.294 58.224C135.454 58.568 135.678 58.832 135.966 59.016C136.262 59.192 136.614 59.28 137.022 59.28C137.462 59.28 137.818 59.196 138.09 59.028C138.37 58.86 138.594 58.632 138.762 58.344L139.518 58.788C139.366 59.06 139.17 59.296 138.93 59.496C138.698 59.696 138.422 59.852 138.102 59.964C137.79 60.068 137.438 60.12 137.046 60.12ZM141.464 60V54H142.244L142.376 54.984C142.544 54.616 142.788 54.34 143.108 54.156C143.436 53.972 143.832 53.88 144.296 53.88C144.4 53.88 144.512 53.888 144.632 53.904C144.76 53.92 144.868 53.952 144.956 54L144.788 54.876C144.7 54.844 144.604 54.82 144.5 54.804C144.396 54.788 144.248 54.78 144.056 54.78C143.808 54.78 143.556 54.852 143.3 54.996C143.052 55.14 142.844 55.36 142.676 55.656C142.508 55.944 142.424 56.312 142.424 56.76V60H141.464ZM148.264 60.12C147.68 60.12 147.14 59.996 146.644 59.748C146.156 59.5 145.78 59.148 145.516 58.692L146.332 58.104C146.508 58.472 146.764 58.76 147.1 58.968C147.444 59.176 147.856 59.28 148.336 59.28C148.76 59.28 149.092 59.2 149.332 59.04C149.572 58.872 149.692 58.656 149.692 58.392C149.692 58.224 149.636 58.072 149.524 57.936C149.42 57.792 149.216 57.688 148.912 57.624L147.472 57.324C146.888 57.204 146.468 57.004 146.212 56.724C145.964 56.444 145.84 56.096 145.84 55.68C145.84 55.352 145.932 55.052 146.116 54.78C146.308 54.508 146.576 54.292 146.92 54.132C147.272 53.964 147.684 53.88 148.156 53.88C148.748 53.88 149.248 53.996 149.656 54.228C150.064 54.46 150.368 54.788 150.568 55.212L149.764 55.74C149.628 55.388 149.408 55.132 149.104 54.972C148.8 54.804 148.484 54.72 148.156 54.72C147.868 54.72 147.62 54.76 147.412 54.84C147.212 54.92 147.056 55.032 146.944 55.176C146.84 55.312 146.788 55.468 146.788 55.644C146.788 55.82 146.848 55.984 146.968 56.136C147.088 56.28 147.312 56.384 147.64 56.448L149.14 56.76C149.7 56.872 150.092 57.056 150.316 57.312C150.54 57.568 150.652 57.88 150.652 58.248C150.652 58.624 150.552 58.956 150.352 59.244C150.152 59.524 149.872 59.74 149.512 59.892C149.152 60.044 148.736 60.12 148.264 60.12ZM159.006 53.88C159.574 53.88 160.074 54.004 160.506 54.252C160.946 54.5 161.29 54.86 161.538 55.332C161.786 55.796 161.91 56.352 161.91 57C161.91 57.648 161.786 58.208 161.538 58.68C161.29 59.144 160.946 59.5 160.506 59.748C160.074 59.996 159.574 60.12 159.006 60.12C158.446 60.12 157.946 59.996 157.506 59.748C157.066 59.5 156.722 59.144 156.474 58.68C156.226 58.208 156.102 57.648 156.102 57C156.102 56.352 156.226 55.796 156.474 55.332C156.722 54.86 157.066 54.5 157.506 54.252C157.946 54.004 158.446 53.88 159.006 53.88ZM159.006 54.708C158.598 54.708 158.25 54.8 157.962 54.984C157.674 55.168 157.45 55.432 157.29 55.776C157.138 56.112 157.062 56.52 157.062 57C157.062 57.472 157.138 57.88 157.29 58.224C157.45 58.568 157.674 58.832 157.962 59.016C158.25 59.2 158.598 59.292 159.006 59.292C159.414 59.292 159.762 59.2 160.05 59.016C160.338 58.832 160.558 58.568 160.71 58.224C160.87 57.88 160.95 57.472 160.95 57C160.95 56.52 160.87 56.112 160.71 55.776C160.558 55.432 160.338 55.168 160.05 54.984C159.762 54.8 159.414 54.708 159.006 54.708ZM163.718 60V54H164.558L164.642 55.344L164.486 55.212C164.614 54.892 164.786 54.636 165.002 54.444C165.218 54.244 165.466 54.1 165.746 54.012C166.034 53.924 166.33 53.88 166.634 53.88C167.066 53.88 167.458 53.964 167.81 54.132C168.162 54.292 168.442 54.54 168.65 54.876C168.866 55.212 168.974 55.64 168.974 56.16V60H168.014V56.496C168.014 55.832 167.87 55.372 167.582 55.116C167.302 54.852 166.954 54.72 166.538 54.72C166.25 54.72 165.962 54.788 165.674 54.924C165.386 55.06 165.146 55.28 164.954 55.584C164.77 55.888 164.678 56.296 164.678 56.808V60H163.718ZM172.059 51.24V58.476C172.059 58.78 172.115 58.992 172.227 59.112C172.339 59.224 172.519 59.28 172.767 59.28C172.927 59.28 173.059 59.268 173.163 59.244C173.267 59.22 173.407 59.176 173.583 59.112L173.427 59.952C173.299 60.008 173.159 60.048 173.007 60.072C172.855 60.104 172.699 60.12 172.539 60.12C172.051 60.12 171.687 59.988 171.447 59.724C171.215 59.46 171.099 59.056 171.099 58.512V51.24H172.059ZM175.295 52.848C175.079 52.848 174.903 52.784 174.767 52.656C174.639 52.52 174.575 52.344 174.575 52.128C174.575 51.912 174.639 51.74 174.767 51.612C174.903 51.476 175.079 51.408 175.295 51.408C175.511 51.408 175.683 51.476 175.811 51.612C175.947 51.74 176.015 51.912 176.015 52.128C176.015 52.344 175.947 52.52 175.811 52.656C175.683 52.784 175.511 52.848 175.295 52.848ZM175.775 54V60H174.815V54H175.775ZM178.003 60V54H178.843L178.927 55.344L178.771 55.212C178.899 54.892 179.071 54.636 179.287 54.444C179.503 54.244 179.751 54.1 180.031 54.012C180.319 53.924 180.615 53.88 180.919 53.88C181.351 53.88 181.743 53.964 182.095 54.132C182.447 54.292 182.727 54.54 182.935 54.876C183.151 55.212 183.259 55.64 183.259 56.16V60H182.299V56.496C182.299 55.832 182.155 55.372 181.867 55.116C181.587 54.852 181.239 54.72 180.823 54.72C180.535 54.72 180.247 54.788 179.959 54.924C179.671 55.06 179.431 55.28 179.239 55.584C179.055 55.888 178.963 56.296 178.963 56.808V60H178.003ZM187.94 60.12C187.372 60.12 186.864 59.996 186.416 59.748C185.976 59.5 185.632 59.144 185.384 58.68C185.136 58.208 185.012 57.648 185.012 57C185.012 56.352 185.136 55.796 185.384 55.332C185.632 54.86 185.972 54.5 186.404 54.252C186.836 54.004 187.328 53.88 187.88 53.88C188.44 53.88 188.916 54 189.308 54.24C189.708 54.48 190.012 54.808 190.22 55.224C190.428 55.632 190.532 56.092 190.532 56.604C190.532 56.74 190.528 56.864 190.52 56.976C190.512 57.088 190.5 57.188 190.484 57.276H185.636V56.424H190.064L189.572 56.52C189.572 55.944 189.412 55.5 189.092 55.188C188.78 54.876 188.368 54.72 187.856 54.72C187.464 54.72 187.124 54.812 186.836 54.996C186.556 55.172 186.336 55.432 186.176 55.776C186.024 56.112 185.948 56.52 185.948 57C185.948 57.472 186.028 57.88 186.188 58.224C186.348 58.568 186.572 58.832 186.86 59.016C187.156 59.192 187.508 59.28 187.916 59.28C188.356 59.28 188.712 59.196 188.984 59.028C189.264 58.86 189.488 58.632 189.656 58.344L190.412 58.788C190.26 59.06 190.064 59.296 189.824 59.496C189.592 59.696 189.316 59.852 188.996 59.964C188.684 60.068 188.332 60.12 187.94 60.12Z" fill="#0BB2AD"/>
</svg>
