<svg width="64" height="62" viewBox="0 0 64 62" fill="none" xmlns="http://www.w3.org/2000/svg">
<path d="M31.6573 6.95997C32.0447 6.95997 32.3576 6.64701 32.3576 6.25967V1.03904C32.3576 0.651702 32.0447 0.338745 31.6573 0.338745C31.27 0.338745 30.957 0.651702 30.957 1.03904V6.25967C30.957 6.64701 31.27 6.95997 31.6573 6.95997Z" fill="url(#paint0_linear_4371_68614)"/>
<path d="M23.5933 8.30588C23.7294 8.49814 23.9455 8.60059 24.1644 8.60059C24.3048 8.60059 24.4465 8.55708 24.5714 8.47007C24.8858 8.24553 24.9588 7.80767 24.7342 7.49191L21.7029 3.24242C21.4769 2.92806 21.0419 2.85368 20.7247 3.07963C20.4104 3.30417 20.3374 3.74203 20.5619 4.05639L23.5933 8.30588Z" fill="url(#paint1_linear_4371_68614)"/>
<path d="M14.8006 12.0951L19.4655 14.4416C19.5666 14.4921 19.6732 14.516 19.7785 14.516C20.0353 14.516 20.2823 14.3743 20.4058 14.1301C20.5798 13.7848 20.4409 13.3638 20.0942 13.1898L15.4293 10.8433C15.0827 10.6693 14.6631 10.8096 14.4891 11.1549C14.3151 11.5001 14.454 11.9211 14.8006 12.0951Z" fill="url(#paint2_linear_4371_68614)"/>
<path d="M38.7426 8.4702C38.8661 8.55721 39.0079 8.60071 39.1482 8.60071C39.3685 8.60071 39.5833 8.49826 39.7208 8.306L42.7521 4.05652C42.9767 3.74216 42.9023 3.3043 42.5879 3.07975C42.2722 2.85521 41.8357 2.92819 41.6098 3.24255L38.5784 7.49203C38.3553 7.80779 38.4283 8.24565 38.7426 8.4702Z" fill="url(#paint3_linear_4371_68614)"/>
<path d="M42.9081 14.1299C43.0316 14.3741 43.2786 14.5159 43.5354 14.5159C43.6407 14.5159 43.7488 14.492 43.8498 14.4415L48.5147 12.095C48.8599 11.921 48.9989 11.5 48.8262 11.1547C48.6522 10.8109 48.2298 10.6706 47.8846 10.8432L43.2197 13.1897C42.8744 13.3637 42.7355 13.7847 42.9081 14.1299Z" fill="url(#paint4_linear_4371_68614)"/>
<path d="M12.1797 34.6085C12.2611 34.579 20.4345 31.9112 26.107 36.1887C26.2347 36.2841 26.3821 36.3304 26.528 36.3304C26.7413 36.3304 26.9505 36.2336 27.0894 36.0512C27.3224 35.7424 27.2606 35.3032 26.9519 35.0702C20.6801 30.3422 12.0941 33.1588 11.732 33.2809C11.3657 33.4044 11.1693 33.8015 11.2928 34.1678C11.4149 34.5341 11.812 34.732 12.1797 34.6085Z" fill="url(#paint5_linear_4371_68614)"/>
<path d="M26.107 44.5976C26.2347 44.6931 26.3821 44.738 26.528 44.738C26.7413 44.738 26.9505 44.6426 27.0894 44.4601C27.3224 44.15 27.2606 43.7107 26.9519 43.4791C20.6801 38.7511 12.0941 41.5677 11.732 41.6898C11.3657 41.8133 11.1693 42.2091 11.2928 42.5768C11.4149 42.943 11.812 43.1423 12.1797 43.0174C12.2611 42.9894 20.4345 40.3201 26.107 44.5976Z" fill="url(#paint6_linear_4371_68614)"/>
<path d="M36.226 36.051C36.365 36.2335 36.5741 36.3303 36.7874 36.3303C36.9333 36.3303 37.0821 36.284 37.2084 36.1885C42.8809 31.911 51.0543 34.5803 51.1357 34.6083C51.5048 34.7332 51.8992 34.5339 52.0227 34.1677C52.1462 33.8014 51.9497 33.4042 51.5834 33.2807C51.2213 33.1586 42.6353 30.3406 36.365 35.07C36.0562 35.303 35.9945 35.7423 36.226 36.051Z" fill="url(#paint7_linear_4371_68614)"/>
<path d="M51.5834 41.6898C51.2199 41.5677 42.6339 38.7511 36.365 43.4791C36.0562 43.7107 35.9945 44.15 36.226 44.4601C36.365 44.6426 36.5741 44.738 36.7874 44.738C36.9333 44.738 37.0821 44.6931 37.2084 44.5976C42.8809 40.3201 51.0543 42.9894 51.1357 43.0174C51.5048 43.1423 51.8992 42.943 52.0227 42.5768C52.1462 42.2091 51.9497 41.8133 51.5834 41.6898Z" fill="url(#paint8_linear_4371_68614)"/>
<path d="M61.817 57.2845C57.5998 55.6454 41.2503 50.1427 33.6186 59.937H29.6961C22.0659 50.1427 5.7149 55.6454 1.4977 57.2845V24.1574C2.06747 23.8234 3.38667 23.1526 4.91075 23.0754V52.4119C4.91075 52.6337 5.01741 52.8442 5.19845 52.9761C5.37808 53.108 5.60964 53.1473 5.82296 53.08C5.99417 53.0252 23.0847 47.7779 31.136 56.7456C31.1388 56.747 31.1402 56.7484 31.143 56.7512C31.1472 56.7555 31.1514 56.7597 31.1542 56.7639C31.1739 56.7835 31.1935 56.8018 31.2146 56.8186C31.2202 56.8228 31.2244 56.827 31.23 56.8312C31.2834 56.8719 31.3381 56.9042 31.3984 56.9267C31.4012 56.9281 31.4041 56.9309 31.4069 56.9309C31.4097 56.9323 31.4139 56.9323 31.4167 56.9337C31.4518 56.9477 31.4897 56.9575 31.5261 56.9646C31.5318 56.966 31.536 56.966 31.5416 56.9674C31.5795 56.973 31.6188 56.9772 31.6581 56.9772C31.6946 56.9772 31.7324 56.973 31.7703 56.9674C31.776 56.966 31.783 56.966 31.79 56.9646C31.8251 56.9575 31.8588 56.9477 31.8924 56.9365C31.9009 56.9337 31.9079 56.9309 31.9149 56.9281C31.95 56.914 31.9823 56.8986 32.0145 56.8804C32.0187 56.8776 32.023 56.8733 32.0286 56.8705C32.0833 56.8369 32.1352 56.7948 32.1787 56.7456C40.2314 47.7779 57.322 53.0252 57.4918 53.08C57.7065 53.1487 57.9381 53.108 58.1163 52.9761C58.2973 52.8442 58.404 52.6337 58.404 52.4119V23.0501C59.8284 23.001 61.0887 23.0206 61.817 23.0431V57.2845ZM6.31275 20.0005C8.37714 19.4322 16.5772 17.4379 23.698 19.3999C24.039 20.5029 24.606 21.5316 25.3765 22.4144C26.2606 23.4262 26.7462 24.7847 26.7476 26.24L26.749 28.4939C26.749 28.8798 27.0634 29.1942 27.4493 29.1942H35.8654C36.2528 29.1942 36.5657 28.8798 36.5657 28.4939V26.1221C36.5657 24.7763 37.0836 23.4262 38.0211 22.3189C38.7593 21.4488 39.2982 20.458 39.6237 19.3985C46.7432 17.4393 54.939 19.4322 57.002 20.0005V51.4815C53.3981 50.5132 40.2216 47.6208 32.3584 54.5942V32.422H35.7714C36.1588 32.422 36.4717 32.1076 36.4717 31.7217C36.4717 31.3344 36.1588 31.0214 35.7714 31.0214H27.5433C27.156 31.0214 26.843 31.3344 26.843 31.7217C26.843 32.1076 27.156 32.422 27.5433 32.422H30.9578V54.597C23.0945 47.6222 9.91667 50.5132 6.31275 51.4815V20.0005ZM27.0381 11.7696C28.5285 10.4364 30.4526 9.82731 32.4608 10.0505C35.6704 10.4111 38.2344 13.006 38.5544 16.224C38.6358 17.0408 38.5768 17.8463 38.3859 18.614C38.3761 18.6434 38.3691 18.6743 38.3621 18.7066C38.1039 19.6918 37.6281 20.6138 36.9503 21.4137C35.7995 22.7736 35.1652 24.4451 35.1652 26.1221V27.7922H28.1496V26.2386C28.1482 24.4451 27.5391 22.7596 26.4332 21.4923C25.7245 20.6826 25.2221 19.7227 24.9526 18.6954C24.9484 18.6771 24.9442 18.6575 24.9386 18.6378C24.7983 18.0863 24.7253 17.5151 24.7253 16.9383C24.7253 14.9665 25.5687 13.0832 27.0381 11.7696ZM62.5552 21.6692C62.4738 21.6636 60.6705 21.5723 58.404 21.6481V19.4743C58.404 19.1683 58.2047 18.8989 57.9128 18.8062C57.5114 18.6799 48.3374 15.8409 39.9395 17.8716C40.0041 17.285 40.0097 16.6885 39.9493 16.0851C39.5634 12.2145 36.4801 9.09053 32.6166 8.65829C30.242 8.39024 27.8689 9.14667 26.1048 10.7255C24.3366 12.3057 23.3233 14.5694 23.3233 16.9383C23.3233 17.2513 23.343 17.5628 23.378 17.8716C14.9801 15.8423 5.80331 18.6799 5.40054 18.8062C5.11004 18.8989 4.91075 19.1683 4.91075 19.4743V21.6692C2.43657 21.7632 0.481637 23.1343 0.393223 23.1975C0.206571 23.328 0.0957031 23.5413 0.0957031 23.7686V58.3259C0.0957031 58.5616 0.214992 58.782 0.412871 58.9125C0.61075 59.0416 0.860554 59.0626 1.07668 58.9672C1.27456 58.8816 20.9516 50.4682 28.7853 61.0555C28.9172 61.2337 29.1249 61.3389 29.3481 61.3389H33.9667C34.1898 61.3389 34.3975 61.2337 34.5294 61.0555C42.3632 50.4682 62.0402 58.8816 62.2381 58.9672C62.4542 59.0612 62.704 59.0416 62.9019 58.9125C63.0997 58.782 63.219 58.5616 63.219 58.3259V22.3681C63.219 21.9962 62.9271 21.6888 62.5552 21.6692Z" fill="url(#paint9_linear_4371_68614)"/>
<defs>
<linearGradient id="paint0_linear_4371_68614" x1="32.2923" y1="6.95997" x2="30.6051" y2="6.84973" gradientUnits="userSpaceOnUse">
<stop stop-color="#5E29FF"/>
<stop offset="1" stop-color="#F7820B"/>
</linearGradient>
<linearGradient id="paint1_linear_4371_68614" x1="24.6577" y1="8.60059" x2="19.5923" y2="7.3734" gradientUnits="userSpaceOnUse">
<stop stop-color="#5E29FF"/>
<stop offset="1" stop-color="#F7820B"/>
</linearGradient>
<linearGradient id="paint2_linear_4371_68614" x1="20.1978" y1="14.516" x2="14.3266" y2="11.5801" gradientUnits="userSpaceOnUse">
<stop stop-color="#5E29FF"/>
<stop offset="1" stop-color="#F7820B"/>
</linearGradient>
<linearGradient id="paint3_linear_4371_68614" x1="42.6752" y1="8.60071" x2="37.61" y2="7.37348" gradientUnits="userSpaceOnUse">
<stop stop-color="#5E29FF"/>
<stop offset="1" stop-color="#F7820B"/>
</linearGradient>
<linearGradient id="paint4_linear_4371_68614" x1="48.6174" y1="14.5159" x2="42.747" y2="11.5798" gradientUnits="userSpaceOnUse">
<stop stop-color="#5E29FF"/>
<stop offset="1" stop-color="#F7820B"/>
</linearGradient>
<linearGradient id="paint5_linear_4371_68614" x1="26.4854" y1="36.3304" x2="18.8386" y2="26.8803" gradientUnits="userSpaceOnUse">
<stop stop-color="#5E29FF"/>
<stop offset="1" stop-color="#F7820B"/>
</linearGradient>
<linearGradient id="paint6_linear_4371_68614" x1="26.4854" y1="44.738" x2="18.8418" y2="35.2885" gradientUnits="userSpaceOnUse">
<stop stop-color="#5E29FF"/>
<stop offset="1" stop-color="#F7820B"/>
</linearGradient>
<linearGradient id="paint7_linear_4371_68614" x1="51.3144" y1="36.3303" x2="43.6662" y2="26.8803" gradientUnits="userSpaceOnUse">
<stop stop-color="#5E29FF"/>
<stop offset="1" stop-color="#F7820B"/>
</linearGradient>
<linearGradient id="paint8_linear_4371_68614" x1="51.3144" y1="44.738" x2="43.6708" y2="35.289" gradientUnits="userSpaceOnUse">
<stop stop-color="#5E29FF"/>
<stop offset="1" stop-color="#F7820B"/>
</linearGradient>
<linearGradient id="paint9_linear_4371_68614" x1="60.2745" y1="61.339" x2="-6.90547" y2="36.4993" gradientUnits="userSpaceOnUse">
<stop stop-color="#5E29FF"/>
<stop offset="1" stop-color="#F7820B"/>
</linearGradient>
</defs>
</svg>
